<svg xmlns="http://www.w3.org/2000/svg" viewBox="0 0 500 500"><defs><radialGradient id="a" cx=".35" cy=".25"><stop stop-color="#ff7878"/><stop offset=".25" stop-color="#e92935"/><stop offset=".68" stop-color="#a80720"/><stop offset="1" stop-color="#430713"/></radialGradient><linearGradient id="l" x1="0" y1="1" x2="1" y2="0"><stop stop-color="#123b1b"/><stop offset=".5" stop-color="#4f9e48"/><stop offset="1" stop-color="#b5df65"/></linearGradient></defs><path d="M245 150C218 100 180 83 145 94c31 19 66 30 100 56z" fill="url(#l)" stroke="#e5c861" stroke-width="3"/><path d="M245 153c7-31 18-57 39-80" fill="none" stroke="#7a4627" stroke-width="17" stroke-linecap="round"/><path d="M250 153c-45-26-100-22-131 7-31 30-43 86-31 156 15 87 73 135 162 141 89-6 147-54 162-141 12-70 0-126-31-156-31-29-86-33-131-7z" fill="url(#a)" stroke="#ffd76a" stroke-width="8"/><ellipse cx="174" cy="230" rx="58" ry="95" fill="#fff" opacity=".22" transform="rotate(28 174 230)"/><circle cx="151" cy="198" r="11" fill="#fff" opacity=".5"/><circle cx="335" cy="345" r="7" fill="#ffd66a"/><circle cx="115" cy="340" r="6" fill="#ffd66a"/><path d="M93 126l5 12 13 5-13 5-5 13-5-13-13-5 13-5zM395 310l4 10 11 4-11 4-4 11-4-11-11-4 11-4z" fill="#ffe78a"/></svg>
